<?xml version="1.0" encoding="utf-8"?>
<!-- Generator: Adobe Illustrator 25.0.1, SVG Export Plug-In . SVG Version: 6.00 Build 0)  -->
<svg version="1.0" id="katman_1" xmlns="http://www.w3.org/2000/svg" xmlns:xlink="http://www.w3.org/1999/xlink" x="0px" y="0px"
	 viewBox="0 0 560 400" style="enable-background:new 0 0 560 400;" xml:space="preserve">
<style type="text/css">
	.st0{fill:#003946;}
	.st1{fill:#EAAB00;}
</style>
<g transform="matrix(3.00758 0 0 3.00758 93.2896 151.267)">
	<g>
		<path class="st0" d="M44.2,14.1c-0.4-1.6-1-4.6-4.3-4.6c-1.7,0-3,1.2-3,3c0,4.7,9.7,4.4,9.7,10.9c0,4.3-3.8,5.9-7.5,5.9
			c-2.6,0-4.4-0.7-5.4-1.2c-0.7-1.9-0.9-3.3-0.9-5.7l1.4-0.3c0.4,1.8,1.4,6.1,5.3,6.1c1.9,0,3.2-1.3,3.2-3.4c0-5.1-9.4-4.7-9.4-11
			c0-3.9,2.9-5.5,6.8-5.5c2.3,0,3.6,0.5,4.8,1.1c0.2,1.5,0.3,3.1,0.3,4.7L44.2,14.1L44.2,14.1z"/>
		<path class="st0" d="M58.9,27.8c-0.9,0.6-2.3,1.6-4.6,1.6c-4.7,0-4.9-2.7-4.9-6.1v-4.4c0-1.1,0-2.4-0.9-2.4c-0.5,0-0.8,0.2-1,0.2
			v-0.9c2.3-0.8,4-1,5.5-1.1v8.5c0,2.4,0.5,4.4,3.4,4.4c1.2,0,1.9-0.6,2.3-0.8v-8c0-1.1,0-2.4-0.9-2.4c-0.5,0-0.8,0.2-1,0.2v-0.9
			c2.3-0.8,4-1,5.5-1.1v9.1c0,2.5,0,3.7,1,3.7c0.2,0,0.6,0,0.8,0l0.1,0.8c-1.4,0.5-3.1,0.9-4.6,1.2L58.9,27.8z"/>
		<path class="st0" d="M67.2,18.8c0-1.1,0-2.4-0.9-2.4c-0.5,0-0.8,0.2-1,0.2v-0.9c2.3-0.8,3.9-1,5.5-1.1v1.8
			c0.8-0.7,2.2-1.8,4.8-1.8c2.7,0,4.6,1.3,4.6,5.4v6c0,1.6,0.2,1.9,1.2,2l0.6,0.1v0.8h-7.4V28l0.6-0.1c1.1-0.1,1.2-0.4,1.2-2v-4.3
			c0-2.4,0-5.3-3.2-5.3c-1.2,0-2,0.6-2.5,1.2V26c0,1.6,0.2,1.9,1.2,2l0.6,0.1v0.8h-7.4V28L66,28c1-0.1,1.2-0.4,1.2-2L67.2,18.8
			L67.2,18.8z"/>
		<path class="st0" d="M87.6,28.1l0.7-0.1c1.4-0.3,1.4-0.2,1.4-3.6V13.2c0-3,0-3.3-1.4-3.5l-0.7-0.1V8.8h8.3v0.8l-0.7,0.1
			c-1.4,0.2-1.4,0.6-1.4,3.5v14.1c0.9,0.2,1.9,0.4,2.8,0.4c4.3,0,4.3-2.1,5.2-4.6l1.1,0.2c-0.2,2-0.4,3.6-1.1,5.5H87.6L87.6,28.1z"
			/>
		<path class="st0" d="M103.5,28.1l0.6-0.1c1.1-0.1,1.2-0.4,1.2-2v-7.2c0-1.1,0-2.4-0.9-2.4c-0.5,0-0.8,0.2-1,0.2v-0.9
			c2.3-0.8,4-1,5.5-1.1V26c0,1.6,0.2,1.9,1.2,2l0.6,0.1v0.8h-7.4L103.5,28.1L103.5,28.1z M104.9,9.9c0-1.2,0.9-2.1,2.1-2.1
			c1.2,0,2.1,0.9,2.1,2.1c0,1.3-1,2.2-2.1,2.2C105.8,12,104.9,11.1,104.9,9.9z"/>
		<path class="st0" d="M114,15c0-4.2,2.1-8.5,6.9-8.5c1.6,0,2.6,0.5,3.3,1C124,8.4,123.7,9,123,9.8h-0.2c-0.6-0.6-2-1.8-3.2-1.8
			c-1.8,0-1.9,2.5-1.9,5.3V15c0.9,0,2.8,0.2,3.8,0.3v0.8c-1.3,0.2-2.5,0.2-3.8,0.3V26c0,1.6,0.2,1.9,1.3,2l1.2,0.1v0.8h-8V28
			l0.6-0.1c1.1-0.1,1.3-0.4,1.3-2L114,15L114,15z"/>
		<path class="st0" d="M134.8,27.4c-0.8,0.6-2.7,1.9-5.8,1.9c-3.6,0-7.1-2.3-7.1-7.2c0-4.8,3.5-7.6,7-7.6c4.9,0,5.7,3.2,6,5
			c-2.6,1.2-6,2.2-9.2,2.9c0.3,1.8,1.2,5.1,5.4,5.1c1.6,0,2.9-0.7,3.3-0.9L134.8,27.4z M131.2,19.7c-0.2-2.2-1.1-4-3-4
			c-2.6,0-2.6,4.7-2.6,5.3C127.5,20.7,129.4,20.3,131.2,19.7L131.2,19.7z"/>
	</g>
	<g>
		<path class="st1" d="M8.9,1.4c-0.1-0.5-0.1-1.1,0-1.6C8.9-0.5,8.9-0.7,9-1C9-1,9-1.1,9-1.2c0-0.1-0.1-0.2-0.2-0.1
			C8.1-0.8,7.5,0,7,0.8C6.7,1.5,6.4,2.2,6.3,3c1,0.1,1.9,0.3,2.8,0.6C9.2,2.9,9,2.1,8.9,1.4z"/>
		<path class="st1" d="M2.1,3.1c0.9-0.1,1.7-0.2,2.6-0.2c0-0.1,0-0.2-0.1-0.3c-0.1-0.4-0.3-0.7-0.5-1C3.9,1.1,3.8,0.7,3.7,0.3
			C3.6,0,3.5-0.3,3.5-0.6c0-0.2,0-0.4,0-0.5v-0.2c0-0.1-0.1-0.1-0.2-0.1c-0.4,0.6-0.8,1.3-1,2C2.1,1.2,2,1.7,2,2.2
			c0,0.2,0,0.5,0,0.7C2,3,2.1,3,2.1,3.1z"/>
		<path class="st1" d="M-2.1,4.2c0,0,0,0.1,0.1,0.1c0.1,0,0.2-0.1,0.2-0.1c0.6-0.3,1.3-0.5,1.9-0.7c0-0.1-0.1-0.2-0.1-0.2
			C-0.1,3-0.4,2.7-0.6,2.5c-0.2-0.3-0.5-0.6-0.7-0.9c-0.1-0.2-0.3-0.5-0.4-0.8c-0.1-0.1-0.1-0.3-0.1-0.4c0,0,0-0.1,0-0.1
			c0-0.1-0.1-0.1-0.2,0c-0.2,0.6-0.3,1.3-0.4,2c0,0.5,0,0.9,0.1,1.4C-2.2,3.8-2.1,4-2.1,4.2z"/>
		<path class="st1" d="M14,6.2c0.9,0.7,1.7,1.5,2.4,2.4C17,8,17.3,7.1,17.7,6.3c0.3-0.6,0.6-1.1,1-1.6c0.2-0.2,0.4-0.5,0.6-0.7
			c0,0,0.2-0.1,0.3-0.2c0.1-0.1,0-0.2-0.1-0.2c-1.1,0.1-2.3,0.4-3.3,0.9C15.4,4.9,14.6,5.5,14,6.2z"/>
		<path class="st1" d="M18.5,12.1c0.1,0.2,0.2,0.4,0.2,0.5c0.8-0.6,1.4-1.5,2-2.2c0.5-0.5,1-1,1.5-1.4c0.3-0.2,0.6-0.4,0.8-0.5
			c0.1,0,0.2-0.1,0.3-0.2c0.1-0.1,0.1-0.2,0-0.3c-1.2-0.2-2.5-0.2-3.7,0.1c-1,0.2-2,0.6-2.8,1.2C17.6,10.2,18.1,11.1,18.5,12.1z"/>
		<path class="st1" d="M13.7,3.2C13.8,2.6,14,2,14.2,1.5c0.1-0.3,0.2-0.5,0.4-0.7c0-0.1,0.1-0.2,0.2-0.3c0.1-0.1,0-0.2-0.1-0.2
			c-0.9,0.4-1.9,1-2.6,1.7c-0.6,0.6-1.2,1.3-1.5,2.1c1,0.4,1.9,0.9,2.8,1.5C13.5,4.8,13.5,4,13.7,3.2z"/>
		<path class="st1" d="M22.4,18.2c-0.8-0.3-1.7-0.5-2.5-0.4c0,1.1,0,2.1-0.2,3.2c0.9-0.1,1.7-0.4,2.5-0.7c0.6-0.2,1.1-0.3,1.7-0.3
			c0.3,0,0.6,0,0.8,0c0.1,0,0.2,0,0.3,0c0.1,0,0.2-0.1,0.1-0.2C24.3,19.2,23.3,18.6,22.4,18.2L22.4,18.2z"/>
		<path class="st1" d="M25.1,13.9c-1-0.5-2.2-0.8-3.3-0.9c-0.9-0.1-1.9,0-2.8,0.3c0.4,1.1,0.6,2.3,0.7,3.4c0.9-0.3,1.6-1,2.4-1.4
			c0.5-0.3,1.1-0.6,1.7-0.8c0.3-0.1,0.6-0.2,0.9-0.2c0.1,0,0.2,0,0.3-0.1C25.2,14.1,25.3,14,25.1,13.9z"/>
		<path class="st1" d="M14.6,29.8c-0.6,0.5-1.2,1-1.8,1.4c0.4,0.4,1,0.7,1.5,1c0.3,0.2,0.7,0.5,1,0.8c0.1,0.2,0.3,0.3,0.4,0.5
			c0,0,0.1,0.1,0.1,0.2c0,0.1,0.2,0,0.2,0c0-0.7-0.1-1.5-0.3-2.2C15.3,30.9,15,30.3,14.6,29.8z"/>
		<path class="st1" d="M17.5,26.4c-0.5,0.7-1,1.4-1.6,2.1c0.6,0.3,1.3,0.4,2,0.6c0.4,0.1,0.9,0.3,1.3,0.6c0.2,0.1,0.4,0.2,0.6,0.4
			c0,0,0.1,0.1,0.2,0.2c0.1,0.1,0.2,0,0.2-0.1c-0.2-0.8-0.6-1.6-1.1-2.3C18.6,27.3,18.1,26.8,17.5,26.4z"/>
		<path class="st1" d="M21.4,23.3c-0.6-0.5-1.3-0.9-2.1-1.1c-0.2,0.9-0.6,1.8-1,2.7c0.8,0.2,1.5,0,2.3,0.1c0.5,0,1.1,0.1,1.6,0.2
			c0.2,0.1,0.5,0.1,0.7,0.2c0.1,0,0.2,0.1,0.3,0.1c0.1,0,0.2-0.1,0.1-0.1C22.8,24.6,22.1,23.9,21.4,23.3z"/>
		<path class="st1" d="M1.5,30.7C-1,31-3.3,30.8-5.1,30c0.8,0.7,1.7,1.2,2.6,1.7c2.2,1.2,4.8,1.8,7.4,1.7c1.1,0,2.2-0.2,3.3-0.4
			c-1.8-0.2-3.5-0.7-5.1-1.4C2.6,31.3,2,31,1.5,30.7z"/>
		<path class="st1" d="M14.9,24.4c0,0,0.1-0.1,0-0.2c-0.1-0.1-0.2,0-0.2,0c-1.5,1.5-3.3,2.8-5.4,3.9c-0.4,0.2-0.8,0.4-1.2,0.6
			c-1.7,0.8-3.5,1.4-5.2,1.7c0.5,0.3,1,0.5,1.5,0.8c1.6,0.7,3.2,1.2,5,1.4c0.7-0.2,1.4-0.5,2-0.9c-0.9-0.7-1.8-1.5-2.7-2.3
			C11.5,28.1,13.5,26.3,14.9,24.4z"/>
		<path class="st1" d="M-9.1,21.6c0.1,0.1,0.2,0.1,0.4,0.2c0.5,0.2,1,0.4,1.5,0.5c0.5,0.1,1,0.2,1.5,0.2c-0.2-0.5-0.4-1-0.6-1.6
			c-0.3-0.8-0.5-1.7-0.6-2.6c0-0.3-0.1-0.6-0.1-0.9c0-0.2,0-0.5-0.1-0.8c0-0.1,0-0.3,0-0.4c0-0.5,0-1,0-1.5
			c-0.6-0.1-1.1-0.2-1.5-0.5c-0.1,0-0.1-0.1-0.2-0.1C-9,14-9.2,13.8-9.4,13.6c-0.1-0.1-0.2-0.2-0.2-0.4c-0.1-0.1-0.1-0.3-0.1-0.4
			c-0.2,0.6-0.4,1.2-0.6,1.9c-0.1,0.2-0.1,0.5-0.2,0.8c-0.1,0.5-0.2,1-0.2,1.6c0,0.1,0,0.3,0,0.4c0,0.4,0,0.8,0,1.2
			c0,0.5,0,1,0.1,1.5C-10.3,20.7-9.7,21.2-9.1,21.6z"/>
		<path class="st1" d="M-4.6,14.8c-0.4,0-0.8,0.1-1.1,0.1c0,0.4,0,0.7,0,1.1v0c0,0.1,0,0.2,0,0.4c0,0.2,0,0.4,0,0.6
			c0.1,1,0.3,1.9,0.5,2.8c0.2,1,0.6,1.9,1,2.8c2-0.1,4.3-0.6,6.7-1.5c-1-1.7-1.8-3.5-2.4-5.1c-0.1-0.3-0.2-0.6-0.4-0.9
			c0.4-0.2,0.9-0.4,1.3-0.6c2.8-1.3,5-3.1,6.3-4.8c0.1-0.1,0.2-0.2,0.2-0.3c0,0,0.1-0.1,0-0.2c-0.1-0.1-0.2,0-0.2,0
			C7.1,9.3,6.9,9.5,6.6,9.8c-1.3,1.1-2.9,2.1-4.8,3c-0.8,0.4-1.7,0.7-2.5,1c-0.8,0.3-1.6,0.5-2.4,0.7C-3.6,14.6-4.1,14.7-4.6,14.8z"
			/>
		<path class="st1" d="M-8.6,12.7c0.2,0.2,0.5,0.4,0.8,0.5c0.1,0,0.2,0.1,0.3,0.1c0.2,0.1,0.4,0.1,0.6,0.1c0-0.2,0.1-0.5,0.1-0.7
			c0-0.2,0.1-0.4,0.1-0.6c0.1-0.6,0.3-1.2,0.4-1.8c0.4-1.3,0.9-2.5,1.5-3.6c0.2-0.3,0.3-0.6,0.5-0.9c0.1-0.1,0.1-0.2,0.2-0.3
			c-0.5,0.3-0.9,0.6-1.3,1C-6,7.1-6.6,7.7-7.1,8.4c-0.8,1-1.5,2-2.1,3.2c0,0.2,0.1,0.4,0.2,0.6C-9,12.3-8.8,12.5-8.6,12.7z"/>
		<path class="st1" d="M-5.4,11.1c0,0.2-0.1,0.5-0.1,0.7c-0.1,0.6-0.2,1.2-0.2,1.8c0.9,0,1.9-0.1,2.9-0.3c0.6-0.1,1.1-0.3,1.7-0.5
			c-0.1-0.2-0.1-0.4-0.2-0.6c-0.3-0.8-0.5-1.6-0.7-2.4C-2,9.5-2.1,9.2-2.2,9c-0.1-0.4-0.2-0.8-0.3-1.2c-0.2-0.8-0.3-1.4-0.4-2
			C-3,5.6-3,5.4-3.1,5.2c0,0,0-0.1,0-0.1c0,0.1-0.1,0.2-0.1,0.2c-0.2,0.3-0.3,0.6-0.5,0.9c-0.5,1-0.9,2.1-1.2,3.2
			C-5.1,9.9-5.3,10.5-5.4,11.1z"/>
		<path class="st1" d="M0,29.7c-1.6-1.2-3.1-2.8-4.2-4.5c-0.3-0.4-0.6-0.9-0.8-1.4c-1,0-2-0.1-2.8-0.4C-8.2,23.4-8.6,23.2-9,23
			c-0.1-0.1-0.2-0.1-0.3-0.2c-0.4-0.2-0.7-0.5-0.9-0.8c0.2,0.7,0.4,1.4,0.7,2.1c0,0.1,0.1,0.2,0.1,0.3c0.2,0.4,0.4,0.7,0.6,1.1
			c0.2,0.3,0.4,0.6,0.6,0.9c0.3,0.5,0.7,1,1.1,1.5C-5.5,29.3-2.9,29.9,0,29.7L0,29.7z"/>
		<path class="st1" d="M5.4,21.2c-0.7,0.4-1.4,0.7-2.2,1c-2.4,0.9-4.7,1.5-6.7,1.7c0.2,0.4,0.5,0.9,0.8,1.3c1.2,1.8,2.6,3.2,4.3,4.4
			c1.8-0.3,3.8-0.8,5.8-1.7c-1.3-1.5-2.4-3-3.5-4.6c0.4-0.2,0.8-0.4,1.2-0.6c3.7-1.8,6.5-4.3,8-6.7c0,0,0.1-0.1,0-0.2
			c-0.1-0.1-0.2,0-0.2,0C11,17.8,8.5,19.7,5.4,21.2z"/>
	</g>
</g>
</svg>
