<?xml version="1.0" encoding="utf-8"?>
<!-- Generator: Adobe Illustrator 27.0.0, SVG Export Plug-In . SVG Version: 6.00 Build 0)  -->
<svg version="1.1" xmlns="http://www.w3.org/2000/svg" xmlns:xlink="http://www.w3.org/1999/xlink" x="0px" y="0px"
	 viewBox="0 0 421.2 150" style="enable-background:new 0 0 421.2 150;" xml:space="preserve">
<style type="text/css">
	.st0{fill:#4B009B;}
	.st1{fill:none;}
</style>
<g id="Layer_1">
	<g>
		<path class="st0" d="M360,50v5.8c-3.7-4.1-9.7-6.8-16-6.8c-13,0-25,10-25,26c0,15.9,12.2,26,24.9,26c6.3,0,12.3-2.7,16.1-7v6h11.2
			V50H360z M345.4,90.6c-8.5,0-15.1-6.9-15.1-15.7s6.6-15.6,15.1-15.6c8.8,0,15.2,7,15.2,15.6C360.6,83.6,354.2,90.6,345.4,90.6z"/>
		<polygon class="st0" points="307.5,50 294.7,84.8 281.9,50 269.9,50 289.1,100 300.3,100 319.5,50 		"/>
		<path class="st0" d="M244.4,49c-14.6,0-26,11.5-26,26.2c0,1.3,0.1,2.6,0.3,3.8h51.4c0.2-1.2,0.3-2.5,0.3-3.8
			C270.4,60.5,259,49,244.4,49z M230,69.3c2.1-5.9,7.6-10.3,14.4-10.3c6.8,0,12.3,4.4,14.4,10.3H230z"/>
		<path class="st0" d="M244.4,90.9c-6,0-10.9-3.2-13.7-8l-9.2,5.3c4.7,7.8,12.3,12.8,22.9,12.8c10.6,0,18.2-5,22.9-12.8l-9.2-5.3
			C255.3,87.7,250.4,90.9,244.4,90.9z"/>
		<path class="st0" d="M191.7,49c-6.2,0-11.3,2.7-14.8,6.8V50h-11.2v50h11.2V72.5c0-8.4,5.4-13.6,12.2-13.6c7.6,0,11.6,5,11.6,12.9
			V100h11.4V70.9C212.1,57.3,204.3,49,191.7,49z"/>
		<path class="st0" d="M133.4,49c-14.6,0-26,11.5-26,26.2c0,1.3,0.1,2.6,0.3,3.8h51.4c0.2-1.2,0.3-2.5,0.3-3.8
			C159.4,60.5,148,49,133.4,49z M119,69.3c2.1-5.9,7.6-10.3,14.4-10.3c6.8,0,12.3,4.4,14.4,10.3H119z"/>
		<path class="st0" d="M133.4,90.9c-6,0-10.9-3.2-13.7-8l-9.2,5.3c4.7,7.8,12.3,12.8,22.9,12.8c10.6,0,18.2-5,22.9-12.8l-9.2-5.3
			C144.3,87.7,139.4,90.9,133.4,90.9z"/>
		<path class="st0" d="M77.2,49c-6.3,0-12.3,2.7-16,6.8V27.4H50V100h11.2v-6c3.8,4.3,9.8,7,16.1,7c12.7,0,24.9-10.1,24.9-26
			C102.2,59,90.2,49,77.2,49z M75.8,90.6c-8.8,0-15.2-7-15.2-15.7c0-8.6,6.4-15.6,15.2-15.6c8.5,0,15.1,6.8,15.1,15.6
			S84.3,90.6,75.8,90.6z"/>
	</g>
</g>
<g id="Safety">
	<rect class="st1" width="421.2" height="150"/>
</g>
</svg>
