<?xml version="1.0" encoding="utf-8"?>
<!-- Generator: Adobe Illustrator 19.2.1, SVG Export Plug-In . SVG Version: 6.00 Build 0)  -->
<svg version="1.1" id="layer" xmlns="http://www.w3.org/2000/svg" xmlns:xlink="http://www.w3.org/1999/xlink" x="0px" y="0px"
	 viewBox="0 0 652 652" style="enable-background:new 0 0 652 652;" xml:space="preserve">
<style type="text/css">
	.st0{fill:#CD122D;}
	.st1{fill:#C4202C;}
	.st2{fill:#000101;}
	.st3{clip-path:url(#SVGID_2_);fill:#C4202C;}
</style>
<polygon class="st0" points="109.9,451.7 20.8,451.7 20.8,190.6 109.9,190.6 109.9,218 48.3,218 48.3,424.3 109.9,424.3 "/>
<path class="st1" d="M108.8,425.4v25.2H21.9V191.7h86.9v25.2H47.2v208.5H108.8z M109.9,451.7v-27.4H48.3V218h61.7v-27.4H20.8v261.1
	H109.9z"/>
<polygon class="st0" points="620.8,451.7 531.7,451.7 531.7,424.3 593.4,424.3 593.4,218 531.7,218 531.7,190.6 620.8,190.6 "/>
<path class="st1" d="M619.7,191.7v258.9h-86.9v-25.2h61.7V216.9h-61.7v-25.2H619.7z M620.8,451.7V190.6h-89.1V218h61.7v206.3h-61.7
	v27.4H620.8z"/>
<path class="st2" d="M448.8,379.6c-11.8,0-18-6.6-20.5-14.1c-1.1-3.2-1.7-7-2-10.9l-0.2-5.9l0-6c0-10.2,0.2-31.2,3.9-40.1
	c4.5-11.2,14.1-12.7,20.5-12.7c12.3,0,18,5.7,18,7.7l-0.3,1.2l-0.8,1.1c-1.8,1.8-4.5,5.5-4.5,10.7c0,6.1,4.1,12.1,10.7,12.1
	c6.6,0,11.6-5.5,11.6-12.7c0-11.4-13-24.6-34.1-24.6c-26.9,0-49.6,21.2-49.6,50.5c0,26.9,20.3,48.7,46.9,48.7
	c24.6,0,36.6-17.1,39.8-33.2h-5.7C479.1,365.1,467.9,379.6,448.8,379.6 M546.5,364.4l-0.8,3.6c-0.4,1.4-1,2.9-2,4.3
	c-1.9,2.8-5.1,5.1-10.8,5.1c-5.7,0-8.5-2.4-9.9-5.6c-0.7-1.6-1-3.5-1.1-5.4l-0.1-5.6v-67.8H546v-4.8h-24.4v-37.8h-3.4
	c-0.6,2.4-1.2,5.3-2.9,9c-1.6,3.6-4.3,8-8.7,13.4c-5.7,7-12.5,13.4-21,17.1v3.2h14.9v57.3l0.2,13.2c0.2,3.2,0.7,5.6,1.6,7.7
	c3.4,9.1,12.5,13.4,23.7,13.4c21.2,0,24.4-14.8,25.5-20.3H546.5z M393,378c-2.6,0-3.9-1.3-4.6-3.7l-0.6-4.1l-0.1-5.4v-47.6l-0.1-6.2
	l-0.7-5.9c-0.8-3.8-2.4-7.3-5.6-10.6c-5.7-5.5-16.4-9.1-27.3-9.1c-23,0-37.8,13-37.8,24.1c0,5.7,3.8,10.7,10,10.7
	c6.1,0,10.5-4.8,10.5-9.7c0-2.6-1.2-4.7-2.4-6.4l-1.6-2.4l-0.7-2.1c0-3.4,8.4-9.6,18.7-9.6c7.5,0,11.3,2.7,13.4,6.2
	c1,1.7,1.6,3.7,1.9,5.6l0.6,5.5V330c-8.5,0-21,0.9-31,3.9c-15.3,4.8-25.7,14.6-25.7,28.4l0.2,3.2c-0.8,4.1-3.1,11.8-13.5,11.8
	c-5.7,0-8.5-2.4-9.9-5.6c-0.7-1.6-1-3.5-1.1-5.4l-0.1-5.6v-67.8h24.3v-4.8h-24.3v-37.8h-3.4l-1.1,4.1l-1.8,4.9
	c-1.6,3.6-4.3,8-8.7,13.4c-5.7,7-12.5,13.4-21,17.1v3.2h14.9v57.3l0.2,13.2c0.2,3.2,0.7,5.6,1.6,7.7c3.4,9.1,12.5,13.4,23.7,13.4
	c13.5,0,19.6-6,22.7-11.7c4.1,7.5,12.9,11.7,23.1,11.7c15.5,0,25.5-8.9,30.5-18.9c0.5,4.5,1.2,10.3,6.4,14.6
	c3.4,2.7,8.2,4.3,13.2,4.3c4.8,0,8.5-1.3,11.3-2.9l3.5-2.4l2.3-2.2l-2.7-3.2l-3,2.5C395.9,377.4,394.5,378,393,378 M242.6,319.1
	c0-15.9-4.3-21-7.5-24.3c-5.5-5.7-14.4-9.3-23.5-9.3c-3.9,0-19.3,0.5-30.7,16.4v-13.6h-36.4v4.7h14.8v84.3h-24.6v-89H97.7v4.7h15.5
	v84.3H97.5v4.8h98.6v-4.8h-15.2v-39.8c0.2-17.3,0.4-31,11.1-39.9c4.3-3.4,9.6-5.4,14.6-5.4c3.4,0,11.2,1.1,13.4,10.5
	c0.5,2.2,0.7,4.1,0.9,13.4v61.2h-14.4v4.8h51v-4.8h-15.1V319.1z M366.7,342.3c-0.5,11.6-1,19.6-8.2,26.6c-2.1,1.8-6.4,5.3-12.8,5.3
	c-7.3,0-14.3-4.8-14.3-15.9c0-18.7,17.5-23.9,35.3-24.1V342.3z"/>
<path class="st2" d="M400,375.5l1.4,1.5l-1.5,1.4l-3.3,2.4c-2.6,1.5-6.1,2.7-10.7,2.7c-4.8,0-9.3-1.6-12.5-4.1
	c-4.8-4-5.5-9.3-6-13.9c-0.1-1.1-1.6-1.3-2-0.4c-4.9,9.7-14.6,18.3-29.6,18.3c-9.9,0-18.2-4.1-22.1-11.2c-0.4-0.7-1.5-0.7-1.9,0
	c-2.8,5.4-8.6,11.2-21.7,11.2c-10.9,0-19.4-4.2-22.7-12.8c-0.9-2-1.3-4.2-1.5-7.4l-0.2-13.2v-58.4h-14.9v-1.5l5.5-3
	c5.9-3.7,10.9-8.7,15.2-14.1c4.5-5.4,7.1-9.8,8.9-13.6v0l1.9-5l0.9-3.3h1.5v37.8h24.3v2.6h-24.3v68.9l0.1,5.7
	c0.1,1.9,0.5,3.9,1.2,5.7c1.5,3.7,4.7,6.3,10.8,6.3c11.2,0,13.7-8.5,14.5-12.7l0-0.2l-0.2-3.3c0-13.2,9.9-22.7,25-27.4
	c9.9-2.9,22.3-3.8,30.7-3.8h1.1v-23.9l-0.6-5.6l0,0c-0.3-2-0.9-4.1-2.1-6c-2.3-3.9-6.5-6.7-14.3-6.7c-5.4,0-10.2,1.6-13.7,3.6
	c-3.4,1.9-6,4.6-6,6.7l-0.1,0.3l0.9,2.6l1.7,2.5c1.2,1.7,2.2,3.5,2.2,5.8c0,4.4-3.8,8.7-9.4,8.7c-5.4,0-8.9-4.4-8.9-9.6
	c0-10.2,13.9-23,36.7-23c10.7,0,21.2,3.6,26.6,8.8c3,3.1,4.5,6.5,5.3,10.1l0.7,5.7l0.1,6.2v47.6l0.1,5.5l0.6,4.3v0
	c0.8,2.7,2.4,4.5,5.6,4.5c1.8,0,3.4-0.8,4.7-1.7l0,0L400,375.5z M367.8,342.3V333h-1.1c-17.8,0.2-36.4,5.4-36.4,25.2
	c0,11.8,7.6,17,15.4,17c6.8,0,11.4-3.6,13.5-5.5l0,0l0,0C366.8,362.3,367.3,353.9,367.8,342.3 M483.1,352.5h3.5l-1.3,4.6
	c-4.7,13.7-16.2,26.4-37.2,26.4c-26,0-45.8-21.3-45.8-47.6c0-28.7,22.3-49.4,48.5-49.4c20.8,0,33,12.9,33,23.5
	c0,6.8-4.6,11.7-10.5,11.7c-5.8,0-9.6-5.2-9.6-11c0-4.9,2.5-8.2,4.3-10l0,0l0.9-1.3l0.5-1.6l-0.1-0.3c0-1.3-1.9-3.5-4.9-5.3
	c-3.1-1.8-7.8-3.2-14.1-3.2c-6.5,0-16.7,1.6-21.5,13.4c-3.8,9.1-4,30.3-4,40.5l0,6l0.2,6c0.3,4,0.9,7.9,2.1,11.2
	c2.6,7.9,9.1,14.8,21.5,14.8c17.3,0,28.2-11.5,32.9-23.8L483.1,352.5z M550,365.5l-1,4c-2.3,6.2-7.7,14.1-23,14.1
	c-10.9,0-19.4-4.2-22.7-12.8c-0.9-2-1.3-4.2-1.5-7.4l-0.2-13.2v-58.4h-14.9v-1.5l5.5-3c5.9-3.8,10.9-8.8,15.2-14.1
	c4.5-5.4,7.1-9.8,8.9-13.6l1.9-5.1l0.8-3.3h1.5v37.8h24.4v2.6h-24.4v68.9l0.1,5.7c0.1,1.9,0.5,3.9,1.2,5.7c1.5,3.7,4.8,6.3,10.9,6.3
	c6.1,0,9.6-2.5,11.7-5.6c1-1.5,1.7-3.1,2.2-4.6l0.6-2.8H550z M256.5,378.2v2.6h-48.8v-2.6H222v-62.3l-0.4-9.4l-0.6-4.2
	c-2.5-10.1-10.9-11.3-14.5-11.3c-5.3,0-10.8,2.1-15.2,5.7c-5.6,4.6-8.4,10.5-9.9,17.4c-1.4,6.8-1.6,14.7-1.6,23.3v40.9H195v2.6H98.6
	v-2.6h15.8v-86.4H98.8v-2.6h34.7v89h26.8v-86.4h-14.8v-2.6h34.3v12.5c0,1.1,1.4,1.5,1.9,0.6c5.6-7.7,12.1-11.7,17.7-13.8
	c5.6-2,10.3-2.1,12.2-2.1c8.8,0,17.4,3.5,22.6,9c3,3.2,7.2,7.9,7.2,23.6v59.1H256.5z M448.8,379.6c-11.8,0-18-6.6-20.5-14.1
	c-1.1-3.2-1.7-7-2-10.9l-0.2-5.9l0-6c0-10.2,0.2-31.2,3.9-40.1c4.5-11.2,14.1-12.7,20.5-12.7c12.3,0,18,5.7,18,7.7l-0.3,1.2
	l-0.8,1.1c-1.8,1.8-4.5,5.5-4.5,10.7c0,6.1,4.1,12.1,10.7,12.1c6.6,0,11.6-5.5,11.6-12.7c0-11.4-13-24.6-34.1-24.6
	c-26.9,0-49.6,21.2-49.6,50.5c0,26.9,20.3,48.7,46.9,48.7c24.6,0,36.6-17.1,39.8-33.2h-5.7C479.1,365.1,467.9,379.6,448.8,379.6
	 M546.5,364.4l-0.8,3.6c-0.4,1.4-1,2.9-2,4.3c-1.9,2.8-5.1,5.1-10.8,5.1c-5.7,0-8.5-2.4-9.9-5.6c-0.7-1.6-1-3.5-1.1-5.4l-0.1-5.6
	v-67.8H546v-4.8h-24.4v-37.8h-3.4c-0.6,2.4-1.2,5.3-2.9,9c-1.6,3.6-4.3,8-8.7,13.4c-5.7,7-12.5,13.4-21,17.1v3.2h14.9v57.3l0.2,13.2
	c0.2,3.2,0.7,5.6,1.6,7.7c3.4,9.1,12.5,13.4,23.7,13.4c21.2,0,24.4-14.8,25.5-20.3H546.5z M393,378c-2.6,0-3.9-1.3-4.6-3.7l-0.6-4.1
	l-0.1-5.4v-47.6l-0.1-6.2l-0.7-5.9c-0.8-3.8-2.4-7.3-5.6-10.6c-5.7-5.5-16.4-9.1-27.3-9.1c-23,0-37.8,13-37.8,24.1
	c0,5.7,3.8,10.7,10,10.7c6.1,0,10.5-4.8,10.5-9.7c0-2.6-1.2-4.7-2.4-6.4l-1.6-2.4l-0.7-2.1c0-3.4,8.4-9.6,18.7-9.6
	c7.5,0,11.3,2.7,13.4,6.2c1,1.7,1.6,3.7,1.9,5.6l0.6,5.5V330c-8.5,0-21,0.9-31,3.9c-15.3,4.8-25.7,14.6-25.7,28.4l0.2,3.2
	c-0.8,4.1-3.1,11.8-13.5,11.8c-5.7,0-8.5-2.4-9.9-5.6c-0.7-1.6-1-3.5-1.2-5.4l-0.1-5.6v-67.8h24.3v-4.8h-24.3v-37.8h-3.4l-1.1,4.1
	l-1.8,4.9c-1.6,3.6-4.3,8-8.7,13.4c-5.7,7-12.5,13.4-21,17.1v3.2h14.9v57.3l0.2,13.2c0.2,3.2,0.7,5.6,1.6,7.7
	c3.4,9.1,12.5,13.4,23.7,13.4c13.5,0,19.6-6,22.7-11.7c4.1,7.5,12.9,11.7,23.1,11.7c15.5,0,25.5-8.9,30.5-18.9
	c0.5,4.5,1.2,10.3,6.4,14.6c3.4,2.7,8.2,4.3,13.2,4.3c4.8,0,8.5-1.3,11.3-2.9l3.5-2.4l2.3-2.2l-2.7-3.2l-3,2.5
	C395.9,377.4,394.5,378,393,378 M242.6,319.1c0-15.9-4.3-21-7.5-24.3c-5.5-5.7-14.4-9.3-23.5-9.3c-3.9,0-19.3,0.5-30.7,16.4v-13.6
	h-36.4v4.7h14.8v84.3h-24.6v-89H97.8v4.7h15.5v84.3H97.5v4.8h98.6v-4.8h-15.2v-39.8c0.2-17.3,0.4-31,11.1-39.9
	c4.3-3.4,9.6-5.4,14.6-5.4c3.4,0,11.2,1.1,13.4,10.5c0.5,2.2,0.7,4.1,0.9,13.4v61.2h-14.4v4.8h51v-4.8h-15.1V319.1z M366.7,342.3
	c-0.5,11.6-1,19.6-8.2,26.6c-2.1,1.8-6.4,5.3-12.8,5.3c-7.3,0-14.3-4.8-14.3-15.9c0-18.7,17.5-23.9,35.3-24.1V342.3z"/>
<path class="st2" d="M122.2,268.4c8.6,0,15.5-6.9,15.5-15.5c0-8.6-7-15.5-15.5-15.5c-8.6,0-15.5,6.9-15.5,15.5
	C106.7,261.4,113.6,268.4,122.2,268.4"/>
<path class="st2" d="M122.2,268.4c8.6,0,15.5-6.9,15.5-15.5c0-8.6-7-15.5-15.5-15.5c-8.6,0-15.5,6.9-15.5,15.5
	C106.7,261.4,113.6,268.4,122.2,268.4 M122.2,267.3c-8,0-14.4-6.4-14.4-14.5c0-8,6.4-14.4,14.4-14.4c8,0,14.5,6.4,14.5,14.4
	C136.6,260.8,130.2,267.3,122.2,267.3"/>
<rect x="169.7" y="424.1" class="st0" width="6.9" height="27.5"/>
<path class="st1" d="M170.7,425.2h4.8v25.3h-4.8V425.2z M169.7,451.6h6.9v-27.5h-6.9V451.6z"/>
<path class="st0" d="M209.5,451.6h6.6v-27.4h-6.4v16.7l-10-16.7h-7.1v27.4h6.5v-17.7L209.5,451.6z M248.8,431.9l2.6-4.7
	c-1.7-1.5-5.5-3.5-9.8-3.5c-3.6,0-5.6,0.8-7.2,2c-1.6,1.1-3.3,3.3-3.3,6.3c0,3,1.3,4.7,2.6,5.8l2.2,1.4l1.6,0.6l4.4,1.6l1.7,0.8
	c0.6,0.4,1,0.9,1,1.7c0,1.6-1.3,2.4-4.1,2.4c-2.7,0-5.9-1.6-7.6-3.1l-3.1,4.9c2.4,2.3,6.6,3.9,10.6,3.9c4,0,6.3-1.1,8-2.5
	c1.7-1.3,3-3.4,3-6.4c0-3-1.3-4.6-2.6-5.7l-1.9-1.2l-1.6-0.7l-5-1.7l-1.6-0.7c-0.5-0.4-0.9-0.9-0.9-1.7c0-1.5,1.2-2.2,3.7-2.2
	C244.1,429.1,247.2,430.5,248.8,431.9 M281.6,424.1V441c0,1.9-0.3,2.9-1.1,3.7c-0.8,0.8-2.1,1.3-3.6,1.3c-1.5,0-2.8-0.5-3.6-1.3
	c-0.8-0.8-1.1-1.8-1.1-3.7v-16.9h-6.9v16.6c0,3.9,0.8,6.3,2.6,8.3c1.9,2,4.7,3,8.9,3s7-1,8.9-3c1.9-2,2.6-4.4,2.6-8.3v-16.6H281.6z
	 M319.3,451.6h7.7l-6.8-11.3c3.4-1.4,5.2-4.2,5.2-7.8c0-3-1.4-5.2-3.2-6.6c-1.8-1.3-4.4-1.8-7.3-1.8H304v27.4h6.8v-10.1h2.8
	L319.3,451.6z M317.3,430c0.7,0.6,1.3,1.6,1.3,2.8c0,1.2-0.5,2.2-1.3,2.9c-0.8,0.5-1.7,0.7-2.9,0.7h-3.5v-7.2h3.5
	C315.6,429.3,316.5,429.5,317.3,430 M356.9,451.6h7.2l-9.2-27.5h-8.3l-9.3,27.5h6.7l1.6-5.2h9.6L356.9,451.6z M350.4,430.6l3.3,10.5
	h-6.6L350.4,430.6z M394,451.6h6.6v-27.4h-6.5v16.7l-10-16.7H377v27.4h6.5v-17.7L394,451.6z M439,447.3l-3.3-4.8
	c0,0-2.3,3.3-6.5,3.3c-4.2,0-7.1-3.2-7.1-8.1c0-5,2.9-8.1,7.1-8.1c4.2,0,6.4,3.3,6.4,3.3l3.3-4.6c0-0.1-3.1-4.6-10.2-4.6
	c-7,0-13.7,4.8-13.7,14.1c0,9.3,6,14.1,13.5,14.1C436.1,452,439,447.3,439,447.3 M453.1,451.6h19v-5.5h-12.1v-6h10.8v-5.4h-10.8
	v-5.2h11.7v-5.3h-18.5V451.6z"/>
<g>
	<defs>
		<path id="SVGID_1_" d="M350.4,434.2l1.8,5.8h-3.7L350.4,434.2z M349.4,430.3l-3.3,10.5c-0.2,0.7,0.3,1.4,1,1.4h6.6
			c0.7,0,1.2-0.7,1-1.4l-3.3-10.5c-0.2-0.5-0.6-0.7-1-0.7C350,429.5,349.6,429.8,349.4,430.3 M311.9,430.4h2.4l2.2,0.5
			c0.5,0.4,0.9,1.1,0.9,2c0,0.9-0.4,1.6-0.9,2l-2.2,0.5h-2.4V430.4z M309.8,428.2v9.4h4.6c1.4,0,2.5-0.3,3.5-0.9l0.1,0l0,0
			c1-0.8,1.7-2.2,1.7-3.7c0-1.6-0.7-2.8-1.7-3.7l0,0l-0.1,0c-1-0.6-2.1-0.9-3.5-0.9H309.8z M210,441.9c0.4-0.1,0.8-0.5,0.8-1.1
			v-15.7h4.3v25.3h-4.9L200,433.3c-0.3-0.5-0.8-0.6-1.2-0.5c-0.4,0.1-0.8,0.5-0.8,1v16.6h-4.3v-25.3h5.4l9.7,16.2
			c0.2,0.4,0.6,0.5,0.9,0.5C209.8,442,209.9,442,210,441.9 M208.6,423v13.9l-8.3-13.9h-8.9v29.6h8.7v-14.8l8.8,14.8h8.4V423H208.6z
			 M305.1,425.2h9.7c2.8,0,5.1,0.5,6.7,1.6c1.6,1.1,2.8,3.1,2.8,5.7c0,3.2-1.5,5.5-4.5,6.8c-0.6,0.2-0.9,1-0.5,1.5l5.8,9.6h-5.2
			l-5.7-10.1h-4.5v10.1h-4.7V425.2z M302.9,423v29.6h9v-10.1h1l5.7,10.1h8.4c0.8,0,1.4-0.9,0.9-1.6l-6.2-10.3l1.4-0.8
			c2.2-1.7,3.3-4.3,3.3-7.3c0-3.4-1.6-5.9-3.6-7.5c-2.1-1.5-5-2-8-2H302.9z M394.4,441.9c0.4-0.1,0.8-0.5,0.8-1.1v-15.7h4.3v25.3
			h-4.9l-10.2-17.2c-0.3-0.5-0.8-0.6-1.2-0.5c-0.4,0.1-0.8,0.5-0.8,1v16.6h-4.3v-25.3h5.4l9.7,16.2c0.2,0.4,0.5,0.5,0.9,0.5
			C394.2,442,394.3,442,394.4,441.9 M393,423v13.9l-8.3-13.9h-8.9v29.6h8.7v-14.8l8.8,14.8h8.3V423H393z M454.2,425.2h16.3v3.1
			h-11.7v7.4h10.9v3.2h-10.9v8.2h12.1v3.3h-16.8V425.2z M452,423v29.6h21.1V445H461v-3.8h10.8v-7.6H461v-3h11.7V423H452z
			 M281.3,445.4c1-1.1,1.4-2.4,1.4-4.5v-15.8h4.7v15.5c0,3.7-0.7,5.9-2.3,7.6c-1.6,1.7-4.1,2.6-8.1,2.6s-6.5-1-8.1-2.6
			c-1.6-1.7-2.4-3.9-2.4-7.6v-15.5h4.7V441c0,2,0.3,3.3,1.4,4.5c1,1.1,2.6,1.6,4.4,1.6C278.6,447.1,280.3,446.5,281.3,445.4
			 M280.6,423v18c0,1.8-0.3,2.4-0.8,3c-0.5,0.5-1.5,0.9-2.8,0.9c-1.3,0-2.3-0.4-2.8-0.9c-0.5-0.5-0.7-1.2-0.7-3v-18h-9.1v17.7
			c0,4,0.8,6.8,2.9,9.1c2.2,2.3,5.4,3.3,9.7,3.3c4.3,0,7.5-1,9.6-3.3c2.1-2.3,3-5,3-9.1V423H280.6z M347.3,425.2h6.7l8.5,25.3h-4.9
			l-1.6-5.2h-11.3l-1.6,5.2h-4.4L347.3,425.2z M345.8,423l-9.5,28.2c-0.2,0.7,0.3,1.4,1,1.4h7.6l1.6-5.2h8.1l1.6,5.2h8
			c0.7,0,1.3-0.7,1-1.4l-9.5-28.2H345.8z M245.7,443.9c0-1.3-0.8-2.1-1.5-2.6l0,0l-1.8-0.9l-4.5-1.6l-1.5-0.6l-2-1.2
			c-1.1-0.9-2.2-2.4-2.2-5c0-2.5,1.4-4.4,2.8-5.4c1.4-1,3.2-1.8,6.6-1.8c3,0,5.7,1.1,7.6,2.2l0.8,0.6l-1.7,2.9l-2.4-1.5
			c-1.4-0.6-3-0.9-4.3-0.9c-2.5,0-4.8,0.8-4.8,3.3c0,1.2,0.7,2.1,1.4,2.6l0.1,0l1.7,0.8l5,1.7l1.4,0.7l1.8,1.1
			c1.1,0.9,2.1,2.2,2.1,4.8c0,2.6-1.1,4.4-2.6,5.6c-1.5,1.2-3.5,2.2-7.3,2.2c-2.8,0-5.7-0.8-7.9-2.1l-1.2-0.9l2-3.2l2.7,1.7
			c1.5,0.6,3.1,1.1,4.6,1.1C243.3,447.4,245.7,446.4,245.7,443.9 M233.8,424.8c-1.9,1.3-3.8,3.8-3.8,7.2c0,3.4,1.4,5.4,3,6.7l0,0
			l2.3,1.5l1.7,0.7l4.4,1.5l1.5,0.7l0.5,0.8l-0.5,0.9c-0.4,0.3-1.2,0.5-2.5,0.5c-2.3,0-5.3-1.5-6.9-2.9c-0.5-0.4-1.3-0.3-1.7,0.3
			l-3.1,4.9c-0.2,0.4-0.2,1,0.2,1.3c2.6,2.6,7,4.2,11.3,4.2c4.2,0,6.8-1.1,8.6-2.7c1.9-1.5,3.4-3.9,3.4-7.3c0-3.4-1.5-5.3-3-6.5l0,0
			l-2.1-1.3l-1.7-0.8l-5-1.7l-1.3-0.6l-0.5-0.8l0.4-0.7c0.4-0.2,1-0.4,2.2-0.4c2.2,0,5,1.3,6.5,2.5c0.5,0.5,1.3,0.4,1.6-0.3l2.6-4.7
			c0.3-0.4,0.2-1-0.2-1.3c-1.8-1.7-5.9-3.8-10.5-3.8C237.8,422.6,235.6,423.5,233.8,424.8 M416.2,437.8c0-8.6,6.1-13,12.6-13
			c3.3,0,5.6,1,7.1,2.1l1.6,1.4l0,0.1l-2.1,2.9l-0.8-0.8c-1.2-0.9-3-1.9-5.4-1.9c-4.9,0-8.2,3.7-8.2,9.2c0,5.4,3.2,9.2,8.1,9.2
			c2.4,0,4.3-0.9,5.5-1.9l0.9-0.8l2.1,3l0,0l-1.6,1.4c-1.5,1.1-3.9,2.1-7.4,2.1C421.7,450.9,416.2,446.5,416.2,437.8 M414,437.8
			c0,9.9,6.6,15.2,14.6,15.2c4,0,6.8-1.2,8.6-2.5l2-1.8l0.6-0.8c0.3-0.4,0.3-0.9,0.1-1.3l-3.3-4.8c-0.4-0.6-1.2-0.6-1.7-0.2
			l-1.6,1.6c-1,0.7-2.4,1.4-4.2,1.4c-3.5,0-6-2.6-6-7c0-4.5,2.5-7,6-7c1.8,0,3.2,0.7,4.1,1.4l1.5,1.6c0.5,0.5,1.3,0.4,1.6-0.1
			l3.3-4.6c0.3-0.4,0.3-1,0-1.3l-0.7-0.8l-2-1.7c-1.8-1.2-4.5-2.5-8.3-2.5C421.2,422.6,414,427.8,414,437.8"/>
	</defs>
	<clipPath id="SVGID_2_">
		<use xlink:href="#SVGID_1_"  style="overflow:visible;"/>
	</clipPath>
	<path class="st3" d="M209.6,451.6h6.6v-27.4h-6.4v16.8l-10-16.8h-7.1v27.4h6.5v-17.7L209.6,451.6z M248.8,431.9l2.7-4.7
		c-1.7-1.5-5.5-3.5-9.8-3.5c-3.6,0-5.6,0.8-7.2,2c-1.6,1.1-3.3,3.3-3.3,6.3c0,3,1.3,4.7,2.6,5.8l2.2,1.4l1.6,0.6l4.4,1.6l1.7,0.8
		c0.6,0.4,1,0.9,1,1.7c0,1.6-1.3,2.4-4.1,2.4c-2.7,0-5.9-1.6-7.6-3.1l-3.1,4.9c2.4,2.3,6.6,3.9,10.6,3.9c4,0,6.3-1.1,8-2.5
		c1.7-1.3,3-3.4,3-6.4c0-3-1.3-4.6-2.6-5.7l-1.9-1.2l-1.6-0.7l-5-1.7l-1.6-0.7c-0.5-0.4-0.9-0.9-0.9-1.7c0-1.5,1.2-2.2,3.7-2.2
		C244.1,429.1,247.2,430.5,248.8,431.9 M281.6,424.1V441c0,1.9-0.3,2.9-1.1,3.7c-0.8,0.8-2.1,1.3-3.6,1.3c-1.5,0-2.8-0.5-3.6-1.3
		c-0.8-0.8-1.1-1.8-1.1-3.7v-16.9h-6.9v16.6c0,3.9,0.8,6.3,2.6,8.3c1.9,2,4.7,3,8.9,3s7-1,8.9-3c1.9-2,2.6-4.5,2.6-8.3v-16.6H281.6z
		 M319.3,451.6h7.7l-6.8-11.3c3.4-1.4,5.2-4.2,5.2-7.8c0-3-1.4-5.3-3.2-6.6c-1.8-1.3-4.4-1.8-7.3-1.8H304v27.4h6.8v-10.1h2.8
		L319.3,451.6z M317.3,430c0.7,0.6,1.3,1.6,1.3,2.8c0,1.2-0.5,2.2-1.3,2.9c-0.8,0.5-1.7,0.7-2.9,0.7h-3.5v-7.2h3.5
		C315.6,429.3,316.5,429.5,317.3,430 M356.9,451.6h7.2l-9.2-27.5h-8.3l-9.3,27.5h6.7l1.6-5.2h9.6L356.9,451.6z M350.4,430.6
		l3.3,10.5h-6.6L350.4,430.6z M394,451.6h6.6v-27.4h-6.5v16.8l-10-16.8H377v27.4h6.5v-17.7L394,451.6z M439,447.3l-3.3-4.8
		c0,0-2.3,3.3-6.5,3.3c-4.2,0-7.1-3.2-7.1-8.1c0-5,2.9-8.1,7.1-8.1c4.2,0,6.4,3.3,6.4,3.3l3.3-4.6c0-0.1-3.1-4.6-10.2-4.6
		c-7,0-13.7,4.8-13.7,14.1c0,9.3,6,14.1,13.5,14.1C436.1,452,439,447.3,439,447.3 M453.1,451.6h19v-5.5h-12.1v-6h10.8v-5.4h-10.8
		v-5.2h11.7v-5.3h-18.5V451.6z"/>
</g>
</svg>
